<?xml version="1.0" encoding="UTF-8" standalone="no"?>
<svg
   id="svg"
   version="1.1"
   viewBox="0 0 150 150"
   inkscape:version="1.1 (c68e22c387, 2021-05-23)"
   sodipodi:docname="noise.svg"
   xmlns:inkscape="http://www.inkscape.org/namespaces/inkscape"
   xmlns:sodipodi="http://sodipodi.sourceforge.net/DTD/sodipodi-0.dtd"
   xmlns="http://www.w3.org/2000/svg"
   xmlns:svg="http://www.w3.org/2000/svg">
  <defs
     id="defs8" />
  <sodipodi:namedview
     id="namedview6"
     pagecolor="#ffffff"
     bordercolor="#666666"
     borderopacity="1.0"
     inkscape:pageshadow="2"
     inkscape:pageopacity="0.0"
     inkscape:pagecheckerboard="0"
     showgrid="false"
     inkscape:zoom="2.7733333"
     inkscape:cx="70.853365"
     inkscape:cy="70.492788"
     inkscape:window-width="1920"
     inkscape:window-height="1017"
     inkscape:window-x="-8"
     inkscape:window-y="-8"
     inkscape:window-maximized="1"
     inkscape:current-layer="svg" />
  <g
     id="g3"
     transform="translate(7.2682914,7.3136971)">
    <path
       d="m -0.00179274,79.711598 c 0.088367,0 0.176734,-50.9543 0.265101,-50.9577 0.088367,-0.0034 0.176734,56.0936 0.265101,56.0868 0.088367,-0.0068 0.176734,8.8515 0.265101,8.8413 0.088367,-0.0103 0.176734,-12.5286 0.26509704,-12.5423 0.08837,-0.0136 0.17674,-49.2097 0.26511,-49.2267 0.08836,-0.0171 0.17673,98.953602 0.2651,98.933602 0.08836,-0.021 0.17673,-96.235602 0.2651,-96.259502 0.08836,-0.0239 0.17673,3.5001 0.2651,3.4728 0.08837,-0.0273 0.17673,16.3058 0.2651,16.2751 0.08837,-0.0307 0.17673,77.291602 0.2651,77.257602 0.08837,-0.035 0.17674,-58.312102 0.2651,-58.349602 0.08837,-0.0376 0.17674,-14.1854 0.2651,-14.2263 0.08837,-0.041 0.17674,2.0357 0.2651,1.9913 0.08837,-0.0444 0.17674,-11.9776 0.26511,-12.0254 0.08836,-0.0478 0.17673,70.759002 0.2651,70.708002 0.08836,-0.052 0.17673,-24.469502 0.2651,-24.524102 0.08836,-0.0546 0.17673,-10.772 0.2651,-10.8301 0.08837,-0.058 0.17673,-73.2245 0.2651,-73.286 0.08837,-0.0614 0.17673,55.307 0.2651,55.2422 0.08837,-0.0649 0.17674,38.333002 0.2651,38.265002 0.08837,-0.069 0.17674,-29.750402 0.2651,-29.822102 0.08837,-0.0717 0.17674,-19.7373 0.2651,-19.8124 0.08837,-0.0751 0.17674,-35.0203 0.26511,-35.0988 0.08836,-0.0785 0.17673,20.591 0.2651,20.5091 0.08836,-0.082 0.17673,9.4749 0.2651,9.3895 0.08836,-0.0853 0.17673,-18.0618 0.2651,-18.1506 0.08837,-0.0887 0.17673,41.0425 0.2651,40.9504 0.08837,-0.0922 0.17673,-45.3316 0.2651,-45.4271 0.08837,-0.0956 0.17674,74.155002 0.2651,74.056002 0.08837,-0.099 0.17674,-76.130002 0.2651,-76.232402 0.08837,-0.1024 0.17674,24.7157 0.2651,24.6099 0.08837,-0.1058 0.17674,-48.88478849 0.26511,-48.99402049 0.08836,-0.109232 0.17673,114.71252249 0.2651,114.60052249 0.08836,-0.113 0.17673,-16.473002 0.2651,-16.589002 0.08836,-0.1161 0.17673,-95.3909805 0.2651,-95.5104505 0.08837,-0.11947 0.17673,15.2042505 0.2651,15.0813505 0.08837,-0.1229 0.17673,69.4514 0.2651,69.3251 0.08837,-0.1263 0.17674,-23.999 0.2650597,-24.1287 0.0884,-0.1297 0.1768,24.9353 0.2651,24.8022 0.0884,-0.1332 0.1768,-87.36510649 0.2651,-87.50164649 0.0884,-0.136539 0.1768,-0.065363 0.2651,-0.205316 0.0884,-0.139954 0.1768,119.03446449 0.2651,118.89146449 0.0884,-0.143 0.1768,-37.988202 0.2651,-38.135002 0.0884,-0.1468 0.1768,-6.1276 0.2651,-6.2778 0.0884,-0.1502 0.1768,12.556 0.2652,12.4024 0.0883,-0.1536 0.1767,-54.0871 0.2651,-54.2441 0.0883,-0.1571 0.1767,11.1674 0.2651,11.0069 0.0883,-0.1604 0.1767,85.852602 0.2651,85.688602 0.0883,-0.164 0.1767,-48.900202 0.2651,-49.067502 0.0883,-0.1672 0.1767,-27.8749 0.2651,-28.0456 0.0883,-0.1707 0.1767,-24.9676 0.2651,-25.1417 0.0883,-0.1741 0.1767,-11.6062 0.2651,-11.7837 0.0883,-0.1775 0.1767,57.4424 0.2651,57.2615 0.0883,-0.1809 0.1767,18.883 0.2651,18.6987 0.0883,-0.1843 0.1767,28.926302 0.2651,28.738302 0.0883,-0.188 0.1767,-62.908702 0.2651,-63.099902 0.0883,-0.1911 0.1767,61.722902 0.2651,61.528902 0.0883,-0.195 0.1767,-76.515302 0.2651,-76.713302 0.0883,-0.198 0.1767,0.6136 0.2651,0.4122 0.0883,-0.2014 0.1767,-7.7266 0.2651,-7.9314 0.0883,-0.2048 0.1767,-16.9752 0.2651,-17.1834 0.0883,-0.2082 0.1767,-8.5888805 0.2651,-8.8005205 0.0883,-0.21163 0.1767,99.2414225 0.2651,99.0264225 0.0883,-0.215 0.1767,-32.801602 0.2651,-33.020002 0.0883,-0.2185 0.1767,-51.8254 0.2651,-52.0473 0.0883,-0.2219 0.1767,109.518302 0.2651,109.292302 0.0883,-0.225 0.1767,-96.837002 0.2651,-97.065702 0.0883,-0.2287 0.1767,15.9142 0.2651,15.6821 0.0883,-0.2322 0.1767,-39.0572 0.2651,-39.2927 0.0883,-0.2356 0.1767,87.5802 0.2651,87.3412 0.0883,-0.2389 0.1767,19.167102 0.2651,18.924102 0.0883,-0.242 0.1767,-77.315802 0.2651,-77.561602 0.0883,-0.2458 0.1767,8.7655 0.2651,8.5163 0.0883,-0.2492 0.1767,83.178302 0.2651,82.925302 0.0883,-0.253 0.1767,-39.683502 0.2651,-39.939502 0.0884,-0.256 0.1767,23.191502 0.2651,22.931502 0.0884,-0.259 0.1767,-20.644502 0.2651,-20.907302 0.0884,-0.2629 0.1767,-8.6144 0.2651,-8.8806 0.0884,-0.2663 0.1767,-64.7342 0.2651,-65.0038 0.0884,-0.2697 0.1767,96.453702 0.2651,96.180702 0.0884,-0.273 0.1767,-94.328402 0.2651,-94.604902 0.0884,-0.2765 0.1767,18.1117 0.2651,17.8318 0.0884,-0.2799 0.1767,-19.6072 0.2651,-19.8905 0.0884,-0.2834 0.1767,-8.1506 0.2651,-8.4373 0.0884,-0.2868 0.1767,85.9347 0.2651,85.6445 0.0884,-0.2901 0.1767,-10.6426 0.2651,-10.9362 0.0884,-0.2936 0.1767,-41.283 0.2651,-41.5799 0.0884,-0.297 0.1767,37.9321 0.2651,37.6317 0.0884,-0.3004 0.1767,-27.4153 0.2651,-27.7191 0.0884,-0.3038 0.1767,80.340902 0.2651,80.033902 0.0884,-0.307 0.1767,-96.749602 0.2651,-97.060302 0.0884,-0.3106 0.1767,-17.4138 0.2651,-17.7279 0.0884,-0.314 0.1767,43.4032 0.2651,43.0858 0.0884,-0.3175 0.1767,-25.5549 0.2651,-25.8757 0.0884,-0.3209 0.1767,-11.0206 0.2651,-11.3448 0.0884,-0.3243 0.1767,32.2981 0.2651,31.9704 0.0884,-0.3277 0.1767,35.9578 0.2651,35.6267 0.0884,-0.3311 0.1767,-41.7459 0.2651,-42.0804 0.0884,-0.3345 0.1767,34.827 0.2651,34.4891 0.0884,-0.338 0.1767,9.6774 0.2651,9.3361 0.0884,-0.3414 0.1767,28.772002 0.2651,28.427002 0.0884,-0.345 0.1767,-38.736902 0.2651,-39.085102 0.0884,-0.3482 0.1767,-75.4337205 0.2651,-75.7853105 0.0884,-0.35159 0.1767,66.1721105 0.2651,65.8171105 0.0884,-0.355 0.1768,55.552302 0.2651,55.194302 0.0884,-0.359 0.1768,-58.692702 0.2651,-59.054602 0.0884,-0.3618 0.1768,-36.518 0.2651,-36.8833 0.0884,-0.3652 0.1768,42.5061 0.2651,42.1375 0.0884,-0.3687 0.1768,-0.4327 0.2651,-0.8048 0.0884,-0.372 0.1768,-61.0862 0.2651,-61.4617 0.0884,-0.3755 0.1768,35.2373 0.2651,34.8584 0.0884,-0.3789 0.1768,15.2158 0.2651,14.8334 0.0884,-0.3823 0.1768,-29.4565 0.2651,-29.8422 0.0884,-0.3858 0.1768,89.940302 0.2651,89.551302 0.0884,-0.39 0.1768,-103.076302 0.2651,-103.468902 0.0884,-0.3925 0.1768,99.842902 0.2651,99.446902 0.0884,-0.396 0.1768,-23.176502 0.2651,-23.575902 0.0884,-0.3994 0.1768,-26.1244 0.2651,-26.5272 0.0884,-0.4028 0.1768,34.906102 0.2651,34.500102 0.0884,-0.406 0.1768,-36.649902 0.2651,-37.059502 0.0884,-0.4096 0.1768,24.7877 0.2651,24.3747 0.0884,-0.4131 0.1768,32.142802 0.2651,31.726802 0.0884,-0.416 0.1768,13.59 0.2651,13.171 0.0884,-0.42 0.1768,-88.201502 0.2651,-88.624802 0.0884,-0.4232 0.1768,35.9146 0.2651,35.488 0.0884,-0.4267 0.1768,-78.6483005 0.2651,-79.0784005 0.0884,-0.4301 0.1768,45.5229005 0.2651,45.0894005 0.0884,-0.4336 0.1768,69.305802 0.2651,68.868802 0.0884,-0.437 0.1768,-57.642702 0.2651,-58.083102 0.0884,-0.4403 0.1768,38.8128 0.2651,38.369 0.0884,-0.4438 0.1768,0.4091 0.2651,-0.038 0.0884,-0.4472 0.1768,7.563102 0.2651,7.112102 0.0884,-0.45 0.1768,3.353 0.2651,2.899 0.0884,-0.454 0.1768,-14.887702 0.2651,-15.345102 0.0884,-0.4574 0.1768,-2.7656 0.2652,-3.2264 0.0883,-0.4608 0.1767,21.142502 0.2651,20.678502 0.0883,-0.464 0.1767,-103.6949825 0.2651,-104.1626325 0.0883,-0.46765 0.1767,112.6026325 0.2651,112.1316325 0.0883,-0.471 0.1767,-69.481302 0.2651,-69.955802 0.0883,-0.4744 0.1767,-13.1993 0.2651,-13.6772 0.0883,-0.4779 0.1767,49.3937 0.2651,48.9124 0.0883,-0.4813 0.1767,-39.681 0.2651,-40.1657 0.0883,-0.4847 0.1767,77.002302 0.2651,76.514302 0.0883,-0.488 0.1767,-58.509802 0.2651,-59.001402 0.0883,-0.4915 0.1767,-33.7315 0.2651,-34.2265 0.0883,-0.4949 0.1767,22.8815 0.2651,22.3832 0.0883,-0.4984 0.1767,-45.7649205 0.2651,-46.2667005 0.0883,-0.50178799 0.1767,88.6643005 0.2651,88.1591005 0.0883,-0.5052 0.1767,-72.4567 0.2651,-72.9653 0.0883,-0.5086 0.1767,21.3026 0.2651,20.7906 0.0883,-0.512 0.1767,61.7061 0.2651,61.1907 0.0883,-0.5155 0.1767,-89.2825205 0.2651,-89.8013705 0.0883,-0.51885 0.1767,91.1215705 0.2651,90.5992705 0.0883,-0.5222 0.1767,-68.9558 0.2651,-69.4814 0.0883,-0.5257 0.1767,18.8786 0.2651,18.3495 0.0883,-0.5291 0.1767,65.623302 0.2651,65.091302 0.0883,-0.533 0.1767,-50.214002 0.2651,-50.749902 0.0883,-0.536 0.1767,28.3053 0.2651,27.7659 0.0883,-0.5393 0.1767,-56.0828 0.2651,-56.6255 0.0883,-0.5428 0.1767,98.326502 0.2651,97.780502 0.0883,-0.546 0.1767,-121.9981725 0.2651,-122.5477425 0.0883,-0.54957 0.1767,6.1268405 0.2651,5.5738405 0.0883,-0.553 0.1767,103.713902 0.2651,103.156902 0.0883,-0.556 0.1767,-111.2849425 0.2651,-111.8447625 0.0883,-0.55981 0.1767,76.3919605 0.2651,75.8287605 0.0884,-0.5633 0.1767,41.243002 0.2651,40.677002 0.0884,-0.567 0.1767,7.72 0.2651,7.15 0.0884,-0.57 0.1767,-110.822502 0.2651,-111.395902 0.0884,-0.5735 0.1767,36.954 0.2651,36.3771 0.0884,-0.5769 0.1767,-17.9552 0.2651,-18.5355 0.0884,-0.5803 0.1767,90.344302 0.2651,89.760302 0.0884,-0.584 0.1767,-18.768 0.2651,-19.355 0.0884,-0.587 0.1767,20.907 0.2651,20.316 0.0884,-0.59 0.1767,-45.712302 0.2651,-46.306302 0.0884,-0.5939 0.1767,30.783302 0.2651,30.185302 0.0884,-0.597 0.1767,-101.0006325 0.2651,-101.6014025 0.0884,-0.60078 0.1767,20.2995005 0.2651,19.6953005 0.0884,-0.6042 0.1767,5.4029 0.2651,4.7953 0.0884,-0.6076 0.1767,95.081802 0.2651,94.470802 0.0884,-0.611 0.1767,-83.839902 0.2651,-84.454302 0.0884,-0.6144 0.1767,-15.1974 0.2651,-15.8152 0.0884,-0.6179 0.1767,85.141502 0.2651,84.520502 0.0884,-0.621 0.1767,-91.679002 0.2651,-92.303702 0.0884,-0.6246 0.1767,111.543702 0.2651,110.915702 0.0884,-0.628 0.1767,-84.534802 0.2651,-85.166302 0.0884,-0.6314 0.1767,45.3194 0.2651,44.6845 0.0884,-0.6349 0.1767,-79.8537 0.2651,-80.4920505 0.0884,-0.63833 0.1767,15.6594505 0.2651,15.0176505 0.0884,-0.6417 0.1767,53.6357 0.2651,52.9906 0.0884,-0.6452 0.1767,41.632602 0.2651,40.983602 0.0884,-0.648 0.1767,-106.766302 0.2651,-107.418302 0.0884,-0.652 0.1767,-7.7534605 0.2651,-8.4088505 0.0884,-0.65539 0.1767,41.1853505 0.2651,40.5265505 0.0884,-0.6588 0.1767,64.142602 0.2651,63.479602 0.0884,-0.662 0.1768,-58.308202 0.2651,-58.973802 0.0884,-0.6657 0.1768,12.2134 0.2651,11.5444 0.0884,-0.6691 0.1768,-16.3138 0.2651,-16.9863 0.0884,-0.6724 0.1768,63.147702 0.2651,62.471702 0.0884,-0.676 0.1768,-62.006502 0.2651,-62.685802 0.0884,-0.6792 0.1768,32.9657 0.2651,32.2831 0.0884,-0.6827 0.1768,-17.957 0.2651,-18.6431 0.0884,-0.6861 0.1768,-5.2244 0.2651,-5.914 0.0884,-0.6895 0.1768,59.497802 0.2651,58.804802 0.0884,-0.693 0.1768,-101.0597425 0.2651,-101.7560925 0.0884,-0.69635 0.1768,7.2101905 0.2651,6.5103905 0.0884,-0.6997 0.1768,22.79 0.2651,22.0868 0.0884,-0.7032 0.1768,16.521 0.2651,15.8144 0.0884,-0.7066 0.1768,-11.7603 0.2651,-12.4703 0.0884,-0.71 0.1768,26.069 0.2651,25.3555 0.0884,-0.7134 0.1768,6.7006 0.2651,5.9837 0.0884,-0.7168 0.1768,-2.2448 0.2651,-2.9651 0.0884,-0.7202 0.1768,8.9628 0.2651,8.2391 0.0884,-0.7236 0.1768,-62.3576 0.2651,-63.0847 0.0884,-0.7271 0.1768,23.4602 0.2651,22.7297 0.0884,-0.7305 0.1768,-8.5993 0.2651,-9.3332 0.0884,-0.7339 0.1768,71.1484 0.2651,70.4111 0.0884,-0.7373 0.1768,-94.1519605 0.2651,-94.8926905 0.0884,-0.74073099 0.1768,71.9064905 0.2651,71.1623905 0.0884,-0.7442 0.1768,-19.6597 0.2651,-20.4073 0.0884,-0.7476 0.1768,-51.06667949 0.2651,-51.81764769 0.0884,-0.7509688 0.1768,112.99194969 0.2651,112.23794969 0.0884,-0.754 0.1768,-110.4233825 0.2651,-111.1811725 0.0884,-0.75779699 0.1768,52.2121705 0.2651,51.4509705 0.0884,-0.7613 0.1768,-23.2415 0.2651,-24.0061 0.0884,-0.7646 0.1768,30.0868 0.2652,29.3188 0.0883,-0.768 0.1767,77.679502 0.2651,76.908502 0.0883,-0.772 0.1767,-133.4041925 0.2651,-134.17905249 0.0883,-0.774863 0.1767,41.93295049 0.2651,41.15465049 0.0883,-0.7783 0.1767,2.8136 0.2651,2.0319 0.0883,-0.7817 0.1767,-23.437 0.2651,-24.2221 0.0883,-0.7851 0.1767,79.8262 0.2651,79.0377 0.0883,-0.7885 0.1767,-29.3253 0.2651,-30.1172 0.0883,-0.7919 0.1767,59.016102 0.2651,58.221102 0.0883,-0.795 0.1767,-34.570102 0.2651,-35.368902 0.0883,-0.7987 0.1767,5.5042 0.2651,4.702 0.0883,-0.8022 0.1767,-33.9563 0.2651,-34.7619 0.0883,-0.8056 0.1767,-0.7651 0.2651,-1.5741 0.0883,-0.809 0.1767,-45.0119 0.2651,-45.8243 0.0883,-0.8124 0.1767,27.2632 0.2651,26.4473 0.0883,-0.8158 0.1767,18.6478 0.2651,17.8285 0.0883,-0.8192 0.1767,-3.1739 0.2651,-3.9966 0.0883,-0.8226 0.1767,52.981002 0.2651,52.154002 0.0883,-0.826 0.1767,-88.362702 0.2651,-89.192102 0.0883,-0.8295 0.1767,23.6279 0.2651,22.795 0.0883,-0.8329 0.1767,24.835 0.2651,23.9987 0.0883,-0.8363 0.1767,-33.1235 0.2651,-33.9632 0.0883,-0.8397 0.1767,-5.0357 0.2651,-5.8788 0.0883,-0.8431 0.1767,33.2972 0.2651,32.4507 0.0883,-0.8466 0.1767,-25.0312 0.2651,-25.8812 0.0883,-0.8499 0.1767,70.460902 0.2651,69.606902 0.0883,-0.853102 0.1767,-66.360702 0.2651,-67.217502 0.0883,-0.8568 0.1767,94.349502 0.2651,93.489502 0.0883,-0.861 0.1767,-73.303302 0.2651,-74.166902 0.0883,-0.8636 0.1767,-45.0081805 0.2651,-45.8752105 0.0884,-0.86703 0.1767,28.2145105 0.2651,27.3441105 0.0884,-0.8704 0.1767,19.5201 0.2651,18.6463 0.0884,-0.8739 0.1767,57.826702 0.2651,56.949702 0.0884,-0.878 0.1767,-22.975702 0.2651,-23.856402 0.0884,-0.8807 0.1767,-73.8907 0.2651,-74.7747 0.0884,-0.88414 0.1767,125.046102 0.2651,124.159102 0.0884,-0.888 0.1767,-34.527 0.2651,-35.418202 0.0884,-0.8909 0.1767,-21.8415 0.2651,-22.7359 0.0884,-0.8943 0.1767,-21.2176 0.2651,-22.1153 0.0884,-0.8978 0.1767,32.2982 0.2651,31.3971 0.0884,-0.9012 0.1767,31.590302 0.2651,30.685302 0.0884,-0.905 0.1767,15.015 0.2651,14.107 0.0884,-0.908 0.1767,-129.8344425 0.2651,-130.74584149 0.0884,-0.911402 0.1767,108.33784149 0.2651,107.42284149 0.0884,-0.915 0.1767,16.901 0.2651,15.983 0.0884,-0.918 0.1767,-32.561402 0.2651,-33.483102 0.0884,-0.9216 0.1767,-26.2209 0.2651,-27.146 0.0884,-0.925 0.1767,50.225102 0.2651,49.297102 0.0884,-0.929 0.1767,-70.079202 0.2651,-71.011002 0.0884,-0.9319 0.1767,78.203002 0.2651,77.267002 0.0884,-0.935 0.1767,-54.553402 0.2651,-55.492102 0.0884,-0.9387 0.1767,54.149102 0.2651,53.207102 0.0884,-0.942 0.1767,-14.194 0.2651,-15.139 0.0884,-0.946 0.1767,-65.020102 0.2651,-65.969002 0.0884,-0.949 0.1767,96.318002 0.2651,95.365002 0.0884,-0.952 0.1767,-0.176 0.2651,-1.132 0.0884,-0.956 0.1767,-47.814002 0.2651,-48.773202 0.0884,-0.9592 0.1767,48.480202 0.2651,47.518202 0.0884,-0.963 0.1767,-120.6908625 0.2651,-121.6568825 0.0884,-0.96602 0.1767,81.0771805 0.2651,80.1077805 0.0884,-0.9694 0.1768,-11.8306 0.2651,-12.8035 0.0884,-0.9728 0.1768,59.132602 0.2651,58.156602 0.0884,-0.976 0.1768,-26.244 0.2651,-27.224 0.0884,-0.979 0.1768,31.232 0.2651,30.249 0.0884,-0.983 0.1768,-26.212 0.2651,-27.199 0.0884,-0.986 0.1768,3.254 0.2651,2.264 0.0884,-0.99 0.1768,-38.180202 0.2651,-39.173502 0.0884,-0.9934 0.1768,-11.5886 0.2651,-12.5853 0.0884,-0.9967 0.1768,68.948802 0.2651,67.948802 0.0884,-1 0.1768,-85.375002 0.2651,-86.378602 0.0884,-1.0035 0.1768,-11.6227 0.2651,-12.6297 0.0884,-1.007 0.1768,78.329302 0.2651,77.319302 0.0884,-1.011 0.1768,-12.297602 0.2651,-13.311402 0.0884,-1.0139 0.1768,-27.2423 0.2651,-28.2595 0.0884,-1.0172 0.1768,-42.379 0.2651,-43.3997 0.0884,-1.0206 0.1768,23.599 0.2651,22.5749 0.0884,-1.024 0.1768,25.8118 0.2651,24.7844 0.0884,-1.0275 0.1768,-8.576 0.2651,-9.6069 0.0884,-1.0309 0.1768,41.8982 0.2651,40.864 0.0884,-1.0343 0.1768,24.641202 0.2651,23.603202 0.0884,-1.038 0.1768,-9.626 0.2651,-10.667 0.0884,-1.041 0.1768,-83.968002 0.2651,-85.012502 0.0884,-1.0445 0.1768,74.058502 0.2651,73.0102 0.0884,-1.048 0.1768,-15.8816 0.2651,-16.9329 0.0884,-1.0514 0.1768,-75.8873805 0.2651,-76.9421505 0.0884,-1.05477 0.1768,76.4124505 0.2651,75.3542505 0.0884,-1.0582 0.1768,-23.8908 0.2651,-24.9524 0.0884,-1.0616 0.1768,-38.4999 0.2651,-39.5649 0.0884,-1.065 0.1768,51.3056 0.2651,50.2372 0.0884,-1.0684 0.1768,-53.2313 0.2652,-54.3031 0.0883,-1.0719 0.1767,88.879302 0.2651,87.8038 0.0883,-1.0752 0.1767,8.663502 0.2651,7.584502 0.0883,-1.079 0.1767,-44.225302 0.2651,-45.307402 0.0883,-1.0821 0.1767,34.0918 0.2651,33.0063 0.0883,-1.0855 0.1767,-8.6141 0.2651,-9.703 0.0883,-1.0889 0.1767,24.448102 0.2651,23.356102 0.0883,-1.093 0.1767,-33.770602 0.2651,-34.866302 0.0883,-1.0957 0.1767,29.338302 0.2651,28.238302 0.0883,-1.099 0.1767,2.052 0.2651,0.95 0.0883,-1.103 0.1767,-37.684002 0.2651,-38.790002 0.0883,-1.1059 0.1767,-50.6127 0.2651,-51.7221 0.0883,-1.1094 0.1767,95.716102 0.2651,94.603102 0.0883,-1.112 0.1767,-59.869902 0.2651,-60.986102 0.0883,-1.1162 0.1767,-5.4764 0.2651,-6.596 0.0883,-1.1196 0.1767,35.5865 0.2651,34.4635 0.0883,-1.1231 0.1767,23.3553 0.2651,22.2288 0.0883,-1.1264 0.1767,36.712802 0.2651,35.582802 0.0883,-1.13 0.1767,-15.99 0.2651,-17.123 0.0883,-1.133 0.1767,-48.107102 0.2651,-49.243802 0.0883,-1.1367 0.1767,36.155802 0.2651,35.015802 0.0883,-1.140302 0.1767,-5.371502 0.2651,-6.515002 0.0883,-1.1436 0.1767,-25.0549 0.2651,-26.2019 0.0883,-1.1469 0.1767,8.4875 0.2651,7.3371 0.0883,-1.1503 0.1767,-51.5352 0.2651,-52.689 0.0883,-1.1538 0.1767,37.4616 0.2651,36.3044 0.0883,-1.1572 0.1767,65.729402 0.2651,64.568402 0.0883,-1.161 0.1767,-109.608102 0.2651,-110.772102 0.0883,-1.164 0.1767,40.3959 0.2651,39.2284 0.0883,-1.1674 0.1767,-4.7286 0.2651,-5.8994 0.0883,-1.1709 0.1767,-5.0684 0.2651,-6.2426 0.0884,-1.1743 0.1767,34.0589 0.2651,32.8813 0.0884,-1.1777 0.1767,-47.2217 0.2651,-48.4028 0.0884,-1.181 0.1767,17.3194 0.2651,16.1349 0.0884,-1.1844 0.1767,30.5067 0.2651,29.3188 0.0884,-1.1879 0.1767,57.386502 0.2651,56.195502 0.0884,-1.191 0.1767,-23.949 0.2651,-25.144 0.0884,-1.194402 0.1767,-44.274902 0.2651,-45.473002 0.0884,-1.1982 0.1767,47.965002 0.2651,46.764002 0.0884,-1.202 0.1767,-83.256402 0.2651,-84.461402 0.0884,-1.2049 0.1767,99.312402 0.2651,98.103402 0.0884,-1.208 0.1767,-78.010502 0.2651,-79.222302 0.0884,-1.2118 0.1767,35.3485 0.2651,34.1333 0.0884,-1.2152 0.1767,-5.8059 0.2651,-7.0246 0.0884,-1.2186 0.1767,-7.0025 0.2651,-8.2245 0.0884,-1.222 0.1767,-49.1400805 0.2651,-50.3655205 0.0884,-1.22545 0.1767,23.1512205 0.2651,21.9224205 0.0884,-1.2289 0.1767,23.4304 0.2651,22.1982 0.0884,-1.2323 0.1767,-35.858 0.2651,-37.0937 0.0884,-1.2357 0.1767,75.1543 0.2651,73.9152 0.0884,-1.2391 0.1767,17.884502 0.2651,16.642502 0.0884,-1.243 0.1767,-20.627802 0.2651,-21.873702 0.0884,-1.246 0.1767,-38.4281 0.2651,-39.6774 0.0884,-1.2493 0.1767,68.043102 0.2651,66.791102 0.0884,-1.253 0.1767,-89.829402 0.2651,-91.085602 0.0884,-1.2561 0.1767,100.857602 0.2651,99.597602 0.0884,-1.259 0.1767,-39.767102 0.2651,-41.030102 0.0884,-1.263 0.1767,-70.5216905 0.2651,-71.7880905 0.0884,-1.26641 0.1767,10.9117905 0.2651,9.6419905 0.0884,-1.2698 0.1767,75.7655 0.2651,74.4923 0.0884,-1.2732 0.1768,-30.7043 0.2651,-31.981 0.0884,-1.2766 0.1768,29.7748 0.2651,28.4947 0.0884,-1.28 0.1768,20.663202 0.2651,19.379202 0.0884,-1.283 0.1768,-66.355702 0.2651,-67.642602 0.0879,-1.2869 0.176903,94.808602 0.264903,93.518602 0.089,-1.29 0.177,-94.844402 0.265,-96.138202 0.089,-1.2937 0.177,13.1179 0.265,11.8208 0.089,-1.2971 0.177,34.5122 0.266,33.2117 0.088,-1.3005 0.176,4.255 0.265,2.951 0.088,-1.3039 0.176,28.388702 0.265,27.080702 0.088,-1.307 0.176,17.55 0.265,16.239 0.088,-1.311 0.177,-64.607602 0.265,-65.921802 0.088,-1.3142 0.177,-14.4588 0.265,-15.7764 0.088,-1.3176 0.177,-12.0076 0.265,-13.3287 0.088,-1.321 0.177,103.263902 0.265,101.939902 0.089,-1.324 0.177,-4.092 0.265,-5.42 0.089,-1.327 0.177,-107.839102 0.265,-109.170302 0.089,-1.3313 0.177,17.8055 0.266,16.4708 0.088,-1.3347 0.176,41.9579 0.265,40.6198 0.088,-1.3381 0.176,-21.8147 0.265,-23.1562 0.088,-1.3415 0.176,27.8335 0.265,26.4886 0.088,-1.3449 0.177,39.477302 0.265,38.129302 0.088,-1.349 0.177,-83.911402 0.265,-85.263202 0.088,-1.3517 0.177,33.1547 0.265,31.7995 0.089,-1.3552 0.177,-3.2262 0.265,-4.5848 0.089,-1.3585 0.177,45.429502 0.265,44.067502 0.089,-1.3617 0.177,-81.637002 0.265,-83.002402 0.089,-1.3654 0.177,54.9831 0.266,53.6143 0.088,-1.3689 0.176,-7.9051 0.265,-9.2773 0.088,-1.3722 0.176,57.896402 0.265,56.520402 0.088,-1.376 0.176,-71.628802 0.265,-73.007802 0.088,-1.3791 0.177,-13.1537 0.265,-14.5362 0.088,-1.3825 0.177,9.685 0.265,8.2991 0.088,-1.3859 0.177,52.7445 0.265,51.3552 0.089,-1.3893 0.177,-9.8327 0.265,-11.2254 0.089,-1.3928 0.177,-4.0616 0.265,-5.4577 0.089,-1.3961 0.177,37.845802 0.265,36.445802 0.089,-1.399 0.177,-38.883102 0.266,-40.286102 0.088,-1.4029 0.176,-29.9506 0.265,-31.3569 0.088,-1.4064 0.176,-3.2577 0.265,-4.6674 0.088,-1.4098 0.176,100.219402 0.265,98.806402 0.088,-1.413 0.177,-36.883402 0.265,-38.300002 0.088,-1.4166 0.177,11.088002 0.265,9.668002 0.088,-1.42 0.177,-6.460102 0.265,-7.883502 0.089,-1.4235 0.177,-46.6357 0.265,-48.0625 0.089,-1.4269 0.177,87.533002 0.265,86.103002 0.089,-1.43 0.177,-21.871 0.265,-23.305 0.089,-1.433 0.177,12.144 0.266,10.707 0.088,-1.437 0.176,-22.917802 0.265,-24.358302 0.088,-1.4405 0.176,16.326302 0.265,14.883302 0.088,-1.444 0.177,-49.314302 0.265,-50.761702 0.088,-1.4473 0.177,59.467702 0.265,58.016702 0.088,-1.451 0.177,-76.124902 0.265,-77.579102 0.088,-1.4541 0.177,40.0508 0.265,38.5932 0.089,-1.4575 0.177,-72.8532605 0.265,-74.3142305 0.089,-1.46098 0.177,125.8871325 0.265,124.4231325 0.089,-1.464 0.177,-109.760902 0.265,-111.228702 0.089,-1.4678 0.177,108.149702 0.266,106.678702 0.088,-1.471 0.176,-12.87 0.265,-14.345 0.088,-1.474 0.176,-106.5311925 0.265,-108.0092325 0.088,-1.47804 0.177,59.2540305 0.265,57.7726305 0.088,-1.4815 0.177,-29.1728 0.265,-30.6576 0.088,-1.4849 0.177,-12.1878 0.265,-13.676 0.088,-1.4883 0.177,116.875202 0.265,115.383202 0.089,-1.491 0.177,-19.961 0.265,-21.456 0.089,-1.495 0.177,23.413 0.265,21.914 0.089,-1.498 0.177,-45.063502 0.265,-46.565402 0.089,-1.5019 0.177,4.1043 0.266,2.599 0.088,-1.5054 0.176,-70.1937 0.265,-71.7025 0.088,-1.5087 0.176,80.053 0.265,78.5408 0.088,-1.5121 0.177,-92.7567105 0.265,-94.2723005 0.088,-1.51559399 0.177,95.9910005 0.265,94.4720005 0.088,-1.519 0.177,-5.0789 0.265,-6.6013 0.088,-1.5224 0.177,43.451702 0.265,41.926702 0.089,-1.526 0.177,-108.766702 0.265,-110.295902 0.089,-1.5293 0.177,90.506902 0.265,88.974902 0.089,-1.533 0.177,-95.423502 0.266,-96.959602 0.088,-1.5361 0.176,66.8491 0.265,65.3097 0.088,-1.5395 0.176,11.6124 0.265,10.0695 0.088,-1.5429 0.176,-53.6282 0.265,-55.1745 0.088,-1.5463 0.177,-15.9212 0.265,-17.4709 0.088,-1.5497 0.177,76.6999 0.265,75.1468 0.088,-1.5532 0.177,-2.9299 0.265,-4.4865 0.088,-1.5565 0.177,-65.2283 0.265,-66.7883 0.089,-1.5599 0.177,22.9368 0.265,21.3735 0.089,-1.5634 0.177,84.349302 0.265,82.782302 0.089,-1.566 0.177,-32.935102 0.266,-34.505302 0.088,-1.5702 0.176,-35.0533 0.265,-36.627 0.088,-1.5736 0.176,-12.7429 0.265,-14.3199 0.088,-1.577 0.176,94.326202 0.265,92.745202 0.088,-1.58 0.177,2.014 0.265,0.43 0.088,-1.584 0.177,-12.1 0.265,-13.687 0.088,-1.588 0.177,-54.289702 0.265,-55.880402 0.088,-1.5907 0.177,-1.5998 0.265,-3.1939 0.089,-1.5941 0.177,10.6642 0.265,9.0667 0.089,-1.5975 0.177,-59.8626805 0.265,-61.4636105 0.089,-1.60093 0.177,8.2953105 0.266,6.6910105 0.088,-1.6044 0.176,118.371202 0.265,116.763202 0.088,-1.608 0.176,-60.512602 0.265,-62.123802 0.088,-1.6112 0.176,-3.0292 0.265,-4.6438 0.088,-1.6145 0.177,-9.2382 0.265,-10.8562 0.088,-1.618 0.177,70.285802 0.265,68.663802 0.088,-1.621 0.177,-5.306 0.265,-6.931 0.088,-1.624 0.177,-72.936602 0.265,-74.564802 0.089,-1.6283 0.177,41.0435 0.265,39.4118 0.089,-1.6316 0.177,38.430002 0.265,36.795002 0.089,-1.635 0.177,-20.698802 0.266,-22.337302 0.088,-1.6385 0.176,-57.3102 0.265,-58.9521 0.088,-1.6419 0.176,97.145402 0.265,95.499402 0.088,-1.645 0.176,-21.177 0.265,-22.826 0.088,-1.649 0.177,5.446 0.265,3.794 0.088,-1.652 0.177,19.655 0.265,17.999 0.088,-1.655 0.177,-6.854 0.265,-8.513 0.089,-1.659 0.177,-102.038002 0.265,-103.700402 0.089,-1.6623 0.177,-13.0686005 0.265,-14.7343805 0.089,-1.665785 0.177,12.4001805 0.265,10.7309805 0.089,-1.6692 0.177,63.5707 0.266,61.8981 0.088,-1.6726 0.176,-26.3724 0.265,-28.0484 0.088,-1.676 0.176,5.782 0.265,4.1025 0.088,-1.6794 0.176,60.261602 0.265,58.578602 0.088,-1.683 0.177,-66.526902 0.265,-68.213102 0.088,-1.6863 0.177,86.031102 0.265,84.342102 0.088,-1.69 0.177,9.207 0.265,7.514 0.089,-1.693 0.177,-63.888002 0.265,-65.584502 0.089,-1.6965 0.177,-2.9234 0.265,-4.6233 0.089,-1.6999 0.177,23.1103 0.265,21.4069 0.089,-1.7033 0.177,-25.3437 0.266,-27.0504 0.088,-1.7068 0.176,-52.4344805 0.265,-54.1446405 0.088,-1.71016 0.176,66.7226405 0.265,65.0090405 0.088,-1.7136 0.176,-16.2361 0.265,-17.9531 0.088,-1.7169 0.177,28.4087 0.265,26.6883 0.088,-1.7204 0.177,-21.3006 0.265,-23.0244 0.088,-1.7238 0.177,-8.8276 0.265,-10.5548 0.089,-1.7273 0.177,36.1216 0.265,34.3909 0.089,-1.7306 0.177,6.3432 0.265,4.6091 0.089,-1.734 0.177,19.475902 0.265,17.737902 0.089,-1.737302 0.177,-19.246002 0.266,-20.986802 0.088,-1.7409 0.176,37.761802 0.265,36.016802"
       title="uniform(-1,1)"
       id="noise" />
  </g>
</svg>
