<?xml version="1.0" encoding="UTF-8" standalone="no"?>
<svg
   id="svg"
   version="1.1"
   viewBox="0 0 150 150"
   inkscape:version="1.1 (c68e22c387, 2021-05-23)"
   sodipodi:docname="siney.svg"
   xmlns:inkscape="http://www.inkscape.org/namespaces/inkscape"
   xmlns:sodipodi="http://sodipodi.sourceforge.net/DTD/sodipodi-0.dtd"
   xmlns="http://www.w3.org/2000/svg"
   xmlns:svg="http://www.w3.org/2000/svg">
  <defs
     id="defs11" />
  <sodipodi:namedview
     id="namedview9"
     pagecolor="#ffffff"
     bordercolor="#666666"
     borderopacity="1.0"
     inkscape:pageshadow="2"
     inkscape:pageopacity="0.0"
     inkscape:pagecheckerboard="0"
     showgrid="false"
     inkscape:zoom="5.5466667"
     inkscape:cx="74.909856"
     inkscape:cy="75.090144"
     inkscape:window-width="1920"
     inkscape:window-height="1017"
     inkscape:window-x="-8"
     inkscape:window-y="-8"
     inkscape:window-maximized="1"
     inkscape:current-layer="svg" />
  <g
     id="g6"
     transform="translate(7.22958,24.247268)">
    <path
       d="m 69.849025,71.128823 c 1.45978,2.271555 2.91956,4.519459 4.379441,6.698059 1.45978,2.178601 2.91956,4.287399 4.37944,6.283634 1.459781,1.996785 2.919561,3.879809 4.379441,5.612651 1.45978,1.732342 2.91956,3.313504 4.379441,4.711054 1.45978,1.398048 2.91956,2.611486 4.37934,3.617363 1.459881,1.005377 2.919661,1.802195 4.379441,2.374486 1.45988,0.57279 2.919661,0.91956 4.379941,1.03581 1.45918,0.11576 2.91936,-9.9e-4 4.37854,-0.34627 1.46018,-0.34577 2.92036,-0.92155 4.37954,-1.714376 1.46018,-0.792327 2.92036,-1.803692 4.37954,-3.011143 1.46018,-1.20745 2.91936,-2.612983 4.37954,-4.185663 1.46018,-1.573178 2.91936,-3.314502 4.37954,-5.188546 1.46018,-1.873544 2.91936,-3.880557 4.37954,-5.978677 1.46019,-2.098121 2.91936,-4.287997 4.37955,-6.524426 1.45917,-2.236478 2.91935,-4.519708 4.37954,-6.802987"
       id="siney1" />
    <path
       d="m 67.754717,67.859026 c 0.69811,1.091868 1.396221,2.183508 2.094308,3.269797"
       id="siney2" />
    <path
       d="m 65.5484,60.8809 c 0.760034,2.375483 1.520094,4.763763 2.280154,7.151499"
       id="siney3" />
    <path
       d="m 0,67.7333 c 1.45663,-4.5761 2.91326,-9.152 4.36989,-13.6346 1.45663,-4.4825 2.91326,-8.8709 4.3699,-13.0764 1.45661,-4.2055 2.91321,-8.2267 4.36991,-11.9829 1.4566,-3.7562 2.9132,-7.2456 4.3699,-10.3987 1.4566,-3.1531 2.9132,-5.9679 4.3699,-8.3889 C 23.3061,7.83082 24.7627,5.80601 26.2194,4.21626 27.676,2.6265 29.1326,1.47449 30.5892,0.781079 32.0459,0.0876656 33.5025,-0.144379 34.9591,0.0869352 36.4158,0.31825 37.8724,1.01567 39.329,2.16224 c 1.4567,1.14658 2.9133,2.74491 4.3699,4.7598 1.4567,2.01489 2.9133,4.44866 4.3699,7.24946 1.4566,2.8007 2.9133,5.9703 4.3699,9.4422 1.4566,3.4719 2.9133,7.2476 4.3699,11.2485 1.4566,4.0009 2.9133,8.2281 4.3699,12.5943 1.4566,4.3661 2.9133,8.8718 4.3699,13.4244"
       id="siney4" />
  </g>
</svg>
