<?xml version="1.0" encoding="UTF-8" standalone="no"?>
<svg
   viewBox="0 0 150 150"
   version="1.1"
   id="svg"
   inkscape:version="1.1 (c68e22c387, 2021-05-23)"
   sodipodi:docname="square.svg"
   xmlns:inkscape="http://www.inkscape.org/namespaces/inkscape"
   xmlns:sodipodi="http://sodipodi.sourceforge.net/DTD/sodipodi-0.dtd"
   xmlns="http://www.w3.org/2000/svg"
   xmlns:svg="http://www.w3.org/2000/svg">
  <defs
     id="defs8" />
  <sodipodi:namedview
     id="namedview6"
     pagecolor="#ffffff"
     bordercolor="#666666"
     borderopacity="1.0"
     inkscape:pageshadow="2"
     inkscape:pageopacity="0.0"
     inkscape:pagecheckerboard="0"
     showgrid="false"
     inkscape:zoom="1.9610428"
     inkscape:cx="16.572815"
     inkscape:cy="-19.122479"
     inkscape:window-width="1920"
     inkscape:window-height="1017"
     inkscape:window-x="-8"
     inkscape:window-y="-8"
     inkscape:window-maximized="1"
     inkscape:current-layer="svg" />
  <g
     id="g3"
     transform="translate(7.2665,7.2665)">
    <path
       d="m 0,135.467 c 1.96329,0 3.92657,0 5.88986,0 1.96328,0 3.92657,0 5.88984,0 1.9633,0 3.9266,0 5.8899,0 1.9633,0 3.9265,0 5.8898,0 1.9633,0 3.9266,0 5.8899,0 1.9633,0 3.9265,0 5.8898,0 C 37.3024,135.467 39.2657,0 41.229,0 c 1.9633,0 3.9266,0 5.8898,0 1.9633,0 3.9266,0 5.8899,0 1.9633,0 3.9266,0 5.8899,0 1.9632,0 3.9265,0 5.8898,0 1.9633,0 3.9266,0 5.8899,0 1.9632,0 3.9265,0 5.8898,0 1.9633,0 3.9266,0 5.8899,0 1.9633,0 3.9265,0 5.8898,0 1.9633,0 3.9266,0 5.8899,0 1.9633,0 3.9266,0 5.8903,0 1.963,0 3.926,135.467 5.889,135.467 1.964,0 3.927,0 5.89,0 1.964,0 3.927,0 5.89,0 1.963,0 3.927,0 5.89,0 1.963,0 3.927,0 5.89,0 1.963,0 3.926,0 5.89,0"
       title="copysign(1, -sin(x))"
       id="square" />
  </g>
</svg>
